<?xml version="1.0" encoding="utf-8"?>
<!-- Generator: Adobe Illustrator 21.1.0, SVG Export Plug-In . SVG Version: 6.00 Build 0)  -->
<svg version="1.1" id="_2" xmlns="http://www.w3.org/2000/svg" xmlns:xlink="http://www.w3.org/1999/xlink" x="0px" y="0px"
	 viewBox="0 0 700 700" style="enable-background:new 0 0 700 700;" xml:space="preserve">
<style type="text/css">
	.st0{fill:#FF2828;}
	.st1{fill:#FFFFFF;}
</style>
<title>mail_sp_icon02</title>
<circle class="st0" cx="350" cy="350" r="350"/>
<path class="st1" d="M604.7,206.3c-2.3-11.4-7.3-22.1-14.7-31.1c-1.5-1.9-3.1-3.6-4.8-5.3c-13.3-13.3-31.4-20.8-50.2-20.8H165
	c-18.8,0-36.9,7.5-50.2,20.8c-1.7,1.7-3.3,3.4-4.8,5.3c-7.4,9-12.4,19.7-14.6,31.1c-0.9,4.5-1.4,9.2-1.4,13.8v259.8
	c0.1,18.8,7.5,36.8,20.8,50.2c1.6,1.6,3.2,3,4.9,4.5c12.7,10.6,28.8,16.3,45.3,16.3h370c16.6,0.1,32.6-5.8,45.3-16.4
	c1.7-1.4,3.3-2.8,4.9-4.4c6.3-6.3,11.4-13.8,15-22V508c3.9-8.9,5.8-18.4,5.8-28.1V220.1C606,215.5,605.5,210.9,604.7,206.3z
	 M140.5,195.6c6.5-6.5,15.3-10.2,24.5-10.2h370c9.2-0.1,18.1,3.6,24.5,10.2c1.1,1.1,2.2,2.3,3.1,3.6l-193.9,169
	c-10.7,9.3-26.7,9.3-37.4,0L137.5,199.1C138.4,197.8,139.4,196.7,140.5,195.6z M130.3,479.9V236.7l140.3,122.4L130.4,481.4
	C130.3,480.9,130.3,480.4,130.3,479.9z M535,514.6H165c-6,0-12-1.6-17.2-4.6l148-129l13.8,12c23.2,20.1,57.6,20.1,80.8,0l13.8-12
	l147.9,129C546.9,513,541,514.6,535,514.6z M569.7,479.9c0,0.5,0,1-0.1,1.5L429.3,359.2l140.3-122.4v243.1L569.7,479.9z"/>
</svg>
