<svg width="18" height="18" viewBox="0 0 18 18" fill="none" xmlns="http://www.w3.org/2000/svg">
<g clip-path="url(#clip0_867_15151)">
<path d="M9 4.5C7.34315 4.5 6 5.84315 6 7.5H7.5C7.5 6.67157 8.17157 6 9 6C9.82843 6 10.5 6.67157 10.5 7.5C10.5 8.32843 9.82843 9 9 9H8.25V11.25H9.75V10.4055C11.0439 10.0725 12 8.89788 12 7.5C12 5.84315 10.6569 4.5 9 4.5Z" fill="#666666"/>
<path d="M9.75 12V13.5H8.25V12H9.75Z" fill="#666666"/>
<path d="M17.25 9C17.25 13.5563 13.5563 17.25 9 17.25C4.44365 17.25 0.75 13.5563 0.75 9C0.75 4.44365 4.44365 0.75 9 0.75C13.5563 0.75 17.25 4.44365 17.25 9ZM15.75 9C15.75 5.27208 12.7279 2.25 9 2.25C5.27208 2.25 2.25 5.27208 2.25 9C2.25 12.7279 5.27208 15.75 9 15.75C12.7279 15.75 15.75 12.7279 15.75 9Z" fill="#666666"/>
</g>
<defs>
<clipPath id="clip0_867_15151">
<rect width="18" height="18" fill="white"/>
</clipPath>
</defs>
</svg>
